<?xml version="1.0" encoding="UTF-8"?>
<svg xmlns="http://www.w3.org/2000/svg" viewBox="0 0 160 108">
  <defs>
    <style>
      .cls-1 {
        fill: #71739f;
      }

      .cls-2 {
        fill: #fff;
      }

      .cls-3 {
        fill: #686b9a;
      }

      .cls-4 {
        isolation: isolate;
      }

      .cls-5 {
        fill: #7677a2;
      }

      .cls-6 {
        fill: #dde2f3;
      }

      .cls-6, .cls-7, .cls-8 {
        mix-blend-mode: multiply;
      }

      .cls-9 {
        fill: #424f86;
      }

      .cls-10 {
        fill: #7a7ba5;
      }

      .cls-11 {
        fill: #f79b80;
      }

      .cls-12 {
        fill: #8282a9;
      }

      .cls-13 {
        fill: #243b7a;
      }

      .cls-14 {
        fill: #849ed1;
      }

      .cls-15 {
        fill: #8d8cb1;
      }

      .cls-16 {
        fill: #d1d0df;
      }

      .cls-17 {
        fill: #487abd;
      }

      .cls-7 {
        fill: #adacc6;
      }

      .cls-18 {
        fill: #555d90;
      }

      .cls-19 {
        fill: #cccbdb;
      }

      .cls-20 {
        fill: #f0eff4;
      }
    </style>
  </defs>
  <g class="cls-4">
    <g id="Layer_1" data-name="Layer 1">
      <g>
        <path class="cls-6" d="M120.47,100.55c.97-1.02,15.19-29.47-.65-55.55-15.83-26.08-55.57-23.03-71.4-12.87-15.83,10.16-23.59,23.37-25.2,37.26-1.62,13.89,9.05,35.57,9.05,35.57l88.2-4.4Z"/>
        <path class="cls-17" d="M125.76,95.97v-30.49s.34-8.21-3.98-10.59-22.53-1.1-22.53-1.1v42.17s26.51,0,26.51,0Z"/>
        <g>
          <path class="cls-11" d="M93.56,25.26s1.1,9.23,1.52,9.99l.42,.76,2.12,1.44s-4.06,5.76-9.06,6.69c-5,.93-4.57-2.03-4.57-2.03l.76-1.61-1.02-8.81s9.06-4.15,9.82-6.44Z"/>
          <path class="cls-2" d="M100.25,38.22l-3.3-1.44s-2.12,3.47-7.03,5.5c-4.91,2.03-5,.85-5.25,0-.25-.85,.08-1.78,.08-1.78l-.36-2.97-1.96,.65-6.82,55.15,17.53,.85,7.11-55.98Z"/>
          <path class="cls-13" d="M84.08,37.6s-1.19,2.74-2.29,9.17c-1.1,6.44-2.12,17.28-2.37,24.73-.25,7.45-.42,24.47-.42,24.47,0,0-21.85,0-22.1,0s-1.78-8.38-1.78-8.38c0,0,9.65-8.27,10.16-9.63,.34-.9,.17-17.64,1.61-25.35,1.44-7.71,3.3-9.26,7.2-11.18,4.03-1.98,9.99-3.84,9.99-3.84Z"/>
          <path class="cls-10" d="M72.56,86.27c.11,0,.2-.09,.2-.2,0-.61,.11-9.21,.21-17.53,.1-8.32,.21-16.92,.21-17.53,0-.11-.09-.2-.2-.2s-.2,.09-.2,.2c0,.61-.11,9.21-.21,17.53-.1,8.32-.21,16.92-.21,17.53,0,.11,.09,.2,.2,.2Z"/>
          <path class="cls-13" d="M116.6,84.2l.17,11.77h-25.74s-1.1-9.99-.68-10.92c.42-.93,26.25-.85,26.25-.85Z"/>
          <g class="cls-8">
            <path class="cls-12" d="M87.94,35c-1.05,.85-2.48,1.52-3.6,1.93l-.6-5.24s6.81-3.12,9.12-5.44c-.48,2.64-1.67,6.13-4.91,8.74Z"/>
          </g>
          <path class="cls-11" d="M75.78,8.07s-1.78,3.05-2.12,6.77c-.34,3.73,0,13.3,3.05,17.36,3.05,4.06,9.4,2.88,12.28,.42,2.64-2.25,5.25-4.74,5.93-9.65,.68-4.91-1.44-14.23-7.45-16.17-6.01-1.95-11.69,1.27-11.69,1.27Z"/>
          <g>
            <path class="cls-11" d="M68.14,90.65s.3,0,.75-.01c.11,0,.23,0,.35,0,.44-.01,.97-.02,1.51-.04,.12,0,.24,0,.36-.01,.53-.01,.99,.05,1.41,.03h.01c.09,0,.22,0,.33,.01,.05,0,.1,0,.14,0,.25-.05,.29-.1,.56-.22,.34-.16,5-1.2,8.78-1.17,3.78,.02,7.18,.27,7.73-.19,.56-.47,.89-5.22-2.34-5.53l-3.97,1.51s-9.07-1.08-12.39,1.38c-3.33,2.45-3.23,4.26-3.23,4.26Z"/>
            <path class="cls-13" d="M72.53,90.61c.09,0,.22,0,.33,.01,.08-.13,.25-.37,.35-.47,1.02-1.04,3.5-1.72,4.39-1.94,.08-.02,.14-.1,.11-.18-.02-.08-.1-.13-.19-.11-1.31,.32-4.08,1.12-4.86,2.44-.02,.04-.09,.16-.13,.25Z"/>
            <path class="cls-13" d="M70.74,90.59c.12,0,.24,0,.36-.01,1.12-2.04,2.95-2.62,5.2-3.35l.13-.04c.08-.03,.12-.11,.1-.19-.03-.08-.11-.12-.19-.1l-.13,.04c-2.39,.77-4.31,1.38-5.47,3.65Z"/>
            <path class="cls-13" d="M68.89,90.64c.11,0,.23,0,.35,0,.68-1.42,2.92-3.81,5.89-4.36,.09-.01,.14-.09,.13-.18-.02-.08-.1-.14-.18-.12-3.06,.57-5.52,3.07-6.18,4.67Z"/>
          </g>
          <path class="cls-13" d="M92.88,18.79s-1.86-.89-3.18-3.39c-1.31-2.5-1.14-4.74-1.14-4.74,0,0-2.37-.38-5.93,.68-3.56,1.06-7.79,2.5-11.35,.47-3.56-2.03-3.56-5.29-1.82-6.65,1.94-1.52,5.8-.59,5.8-.59,0,0-1.48-1.44-.68-2.29,.8-.85,3.73,.25,3.73,.25,0,0,3.56-2.84,10.29-2.5,6.73,.34,9.95,5.04,10.33,10.29,.38,5.25-1.52,10.5-1.52,10.5l-4.53-2.03Z"/>
          <g class="cls-8">
            <path class="cls-12" d="M79.23,20.06c.38,.94,.37,2.03,.47,3.03,.07,.78,.22,1.68-.49,2.21-.34,.25-1.95,.93-1.12,1.47,.32,.21,.84,.15,1.2,.13,.25-.01,.5-.02,.74-.04,.27-.02,.53-.1,.79-.1,.16,0,.2,.21,.08,.29-.43,.27-1.05,.35-1.55,.37-.5,.02-.84,0-1.29-.23-.28-.14-.54-.33-.59-.66-.05-.37,.23-.7,.51-.91,.32-.24,.71-.35,1.04-.58,.45-.32,.41-.86,.38-1.36-.08-1.2-.35-2.39-.46-3.59-.02-.18,.24-.18,.3-.04h0Z"/>
          </g>
          <path class="cls-13" d="M75.76,22.87c.13,.71,.65,1.22,1.16,1.13,.51-.09,.83-.74,.7-1.46-.13-.71-.65-1.22-1.16-1.13-.51,.09-.83,.74-.7,1.46Z"/>
          <path class="cls-13" d="M82.24,22.31c.11,.77,.66,1.33,1.21,1.24s.91-.77,.8-1.54c-.11-.77-.66-1.33-1.21-1.24s-.91,.77-.8,1.54Z"/>
          <path class="cls-13" d="M77.27,19.93c-.4,.07-.8,0-1.19,.03-.1,0-.19,.02-.29,.03-.07,0,.13-.02,.03,0-.02,0-.04,0-.06,.01-.05,0-.1,.02-.15,.03-.08,.02-.17,.05-.25,.07-.08,.02-.16,.04-.24,.03-.04,0-.09-.01-.13-.02,.03,0,.05,0,.08,.01,0,0-.15-.01-.16-.02-.23-.05-.37-.32-.3-.53,.02-.06,.05-.12,.09-.17,.02-.02,.03-.04,.05-.07-.02,.02-.03,.04-.05,.05,.02-.02,.03-.05,.05-.07,.02-.04,.05-.07,.09-.09,.03-.02,.06-.05,.1-.07,.1-.07,.24-.12,.37-.15,.24-.06,.48-.09,.73-.09,.24,0,.48,.02,.72,.06,.21,.03,.45,.1,.62,.23,.13,.1,.21,.23,.19,.4-.02,.14-.13,.31-.29,.33h0Z"/>
          <path class="cls-13" d="M81.79,18.8c.05-.03,.11-.06,.17-.09,.05-.02,.18-.09,.08-.04,.04-.02,.07-.04,.11-.06,.16-.08,.33-.14,.51-.18,.39-.1,.79-.12,1.19-.08,.42,.04,.81,.15,1.17,.37,.05,.03,.1,.06,.15,.1,.03,.04,.06,.07,.09,.11,0-.01-.02-.02-.02-.04,.11,.08,.18,.21,.18,.35,0,.13-.07,.24-.18,.3-.14,.08-.27,.04-.41,0h.21c-.12,.02-.2,.02-.32,0,0,0-.11-.03-.04-.01,.07,.01-.12-.01-.14-.02-.02,0-.15-.02-.02,0-.02,0-.05,0-.07,0-.06,0-.13-.02-.19-.02-.28-.02-.56-.03-.84-.04-.26,0-.52-.01-.78,0-.11,0-.22,0-.33,.01-.06,0-.04,.01,0,0-.02,0-.05,.01-.07,.02-.05,.01-.09,.03-.14,.04-.18,.07-.4-.06-.46-.23-.07-.18-.01-.39,.16-.49h0Z"/>
          <path class="cls-13" d="M79.78,30.57c-.39-.78-1.1-1.35-1.91-1.72,.71-.07,4.06-.38,4.9,.1,.95,.54-.18,2.7-2.13,2.81-.21,.01-.39,0-.57-.03-.02-.39-.11-.78-.29-1.15Z"/>
          <path class="cls-16" d="M95.25,26.03s-.34,1.31-2.29,2.84c-1.95,1.52-4.77,2.64-4.77,2.64l-.23-.99s2.92-1.27,4.28-2.67c1.35-1.4,1.52-2.16,1.52-2.16l1.48,.34Z"/>
          <path class="cls-13" d="M87.63,29.78c-1.57-.07-2.44,1.17-2.55,1.97-.11,.8,.64,1.7,2.41,.91,2.19-.98,1.71-2.81,.15-2.88Z"/>
          <path class="cls-16" d="M94.03,16.33s-.68-4.87-3.94-8.17c-6.22-6.31-11.52-5.93-11.52-5.93,0,0,.04-.89,2.03-1.57,1.87-.64,2.71-.3,2.71-.3,0,0,5.12,.42,9.44,5.21,4.32,4.78,4.78,10.88,4.78,10.88l-3.51-.13Z"/>
          <g>
            <path class="cls-2" d="M94.49,15.74c4.08-.69,6.35,2.5,6.52,5.72,.17,3.22-2.17,5.66-5.29,5.42-7.03-.55-6.22-10.29-1.23-11.14Z"/>
            <path class="cls-5" d="M96.52,23.75c1.08,0,1.99-.54,2.51-1.49,.56-1.02,.51-2.28-.12-3.2-.05-.07-.14-.09-.21-.04-.07,.05-.09,.14-.04,.21,.57,.83,.61,1.96,.1,2.88-.48,.87-1.32,1.37-2.31,1.33-.93-.02-1.72-.45-2.22-1.2-.57-.85-.7-2.04-.34-3.01,.37-.96,1.37-1.62,2.28-1.5,.08,.01,.16-.05,.17-.13,.01-.08-.05-.16-.13-.17-1.07-.14-2.19,.59-2.61,1.7-.4,1.06-.26,2.35,.37,3.29,.56,.83,1.44,1.31,2.47,1.34,.03,0,.06,0,.09,0Z"/>
          </g>
          <path class="cls-13" d="M99.49,37.03s12.36,3.05,16.68,7.96,6.35,29.13,6.44,33.62-3.05,6.35-4.91,7.62c-1.86,1.27-10.08,3.56-16.68,3.9s-12.87,0-12.87,0c0,0,.02-1.44-1-3.56-.94-1.96-2.14-2.37-2.14-2.37l5.67-2.03s.99-17.8,2.54-26.42c1.78-9.91,6.27-18.72,6.27-18.72Z"/>
          <path class="cls-10" d="M79,79.33s.06,0,.08-.02c.1-.05,.15-.17,.1-.27-1.16-2.61-2.36-7.74-3.03-11.34l-.06-.29c-.2-1.06-.46-2.38,.05-3.28,.26-.46,.84-1.47,1.41-2.44,.58-1,1.14-1.95,1.29-2.24,.3-.55-.64-2.03-2-4.06-.37-.55-.68-1.02-.87-1.34-.48-.84-.16-1.61,.21-2.5l.13-.31c.34-.83,.72-1.66,1.1-2.47,.15-.33,.3-.66,.45-.99,.2-.44,.4-.88,.6-1.33,1.2-2.67,2.43-5.43,4.02-8.09,.06-.1,.03-.22-.07-.28-.1-.06-.22-.03-.28,.07-1.6,2.68-2.84,5.45-4.04,8.13-.2,.45-.4,.89-.6,1.33-.15,.33-.3,.66-.45,.99-.37,.81-.76,1.65-1.1,2.49l-.13,.3c-.38,.91-.77,1.84-.19,2.86,.19,.33,.51,.81,.88,1.36,.71,1.06,2.18,3.26,1.98,3.63-.15,.28-.7,1.22-1.28,2.22-.56,.97-1.15,1.98-1.41,2.44-.58,1.04-.31,2.44-.09,3.56l.06,.29c.25,1.31,1.55,8.02,3.06,11.43,.03,.08,.11,.12,.19,.12Z"/>
          <path class="cls-10" d="M91.06,80.05c.05,0,.11-.02,.15-.06,.96-.97,5.6-9.01,5.95-10.52,.19-.83-.29-2.93-.74-4.95-.36-1.57-.72-3.2-.62-3.64,.16-.66,1.34-1.63,2.49-2.56,1.39-1.13,2.82-2.3,3.1-3.36,.32-1.2,.05-8.7-.13-13.67-.06-1.79-.11-3.2-.11-3.7,0-.11-.09-.2-.2-.2h0c-.11,0-.2,.09-.2,.2,0,.51,.05,1.92,.11,3.71,.17,4.64,.45,12.41,.15,13.55-.24,.93-1.69,2.1-2.96,3.15-1.26,1.03-2.44,1.99-2.63,2.79-.13,.53,.22,2.06,.62,3.82,.43,1.89,.91,4.04,.75,4.77-.34,1.48-4.89,9.37-5.84,10.32-.08,.08-.08,.21,0,.29,.04,.04,.09,.06,.14,.06Z"/>
          <path class="cls-10" d="M107.7,76.53s.02,0,.03,0c.11-.02,.19-.12,.17-.23-.15-1.06-2.5-22.27-2.61-23.89,0-.11-.1-.2-.22-.19-.11,0-.2,.11-.19,.22,.11,1.63,2.46,22.85,2.61,23.92,.01,.1,.1,.18,.2,.18Z"/>
          <path class="cls-10" d="M90.85,82.29s.05,0,.08-.01c.52-.21,2.82-.99,5.73-1.97,5.88-1.98,13.93-4.7,15.46-5.49,.1-.05,.14-.18,.09-.28-.05-.1-.18-.14-.28-.09-1.5,.78-9.86,3.6-15.4,5.47-2.92,.98-5.22,1.76-5.76,1.98-.1,.04-.16,.16-.11,.27,.03,.08,.11,.13,.19,.13Z"/>
          <path class="cls-10" d="M93.68,90.73c5.17,0,15.2-.93,22.82-3.63,.11-.04,.16-.15,.12-.26-.04-.11-.16-.16-.26-.12-9.62,3.4-23.08,3.99-25.59,3.42-.11-.02-.22,.05-.24,.16-.02,.11,.04,.22,.15,.24,.54,.12,1.59,.19,3,.19Z"/>
        </g>
        <g>
          <g>
            <g>
              <path class="cls-14" d="M155.24,35.08c-.02-1.17-.22-2.33-.21-3.51,.01-1.15,.12-2.29,.15-3.44,.02-1.18-.15-2.87-1.61-3.05-1.76-.21-3.62,1.36-4.46,2.77-.39,.66-.69,1.46-.54,2.24,.13,.68,.54,1.27,.88,1.86,.36,.63,.61,1.29,0,1.86-.65,.6-1.55,.93-2.26,1.47-1.44,1.1-1.99,2.81-2.1,4.58-.08,1.25,0,2.51-.04,3.76-.04,1.26-.14,2.51-.29,3.76,0,.01,0,.02-.01,.03-.07,.27-.09,.64-.02,.37,.16-.62,1.16-1.43,1.54-1.92,.51-.67,1.01-1.36,1.57-2,1.41-1.63,3.44-2.54,5.05-3.95,1.47-1.29,2.39-2.81,2.36-4.81Z"/>
              <path class="cls-14" d="M139.19,61.57c.19,.61,.49,1.28,.55,1.92,.02,.19,2.11,.06,2.79-.24,.45-.2,.86-.48,1.17-.87,.66-.82,.85-1.92,1.19-2.89,.48-1.34,1.36-2.22,2.71-2.67,1.17-.39,2.49-.58,3.72-.61,1.76-.05,4.02,.23,4.75-1.82,.24-.68,.18-1.37,.12-2.08-.06-.75,0-1.39,.37-2.06,.63-1.13,1.51-2.11,2.19-3.21,.64-1.03,1.18-2.16,1.23-3.39,.04-.98-.18-2.27-.99-2.93-1.52-1.25-3.59,.7-4.47,1.85-1.17,1.54-1.65,3.72-3.23,4.93-.48,.37-.94,.42-1.53,.27-.48-.13-.93-.3-1.42-.3-.78,0-1.49,.29-2.07,.8-.97,.85-1.59,2.07-2.11,3.22-.55,1.23-.95,2.52-1.36,3.8-.51,1.55-1.12,3.06-1.65,4.6-.3,.87-.42,1.85-.78,2.72,.03-.2,.05-.39,.07-.58,.11-.93,.19-1.86,.26-2.79,.07-1.01,.11-2.02,.11-3.04,0-.81,.13-2.14-.52-4.65-.41-1.57-1.27-3.05-1.23-4.71,.05-1.73,.7-3.4,1.26-5.02,.67-1.96,1.16-3.93,.91-6.01-.08-.68-.23-1.5-.77-1.98-.55-.48-1.28-.29-1.85,.03-2.21,1.23-2.38,3.92-2.29,6.17,.06,1.55,.53,2.96,.84,4.47,.06,.3,.44,2,.02,2.1-.24,.06-.5-.38-.59-.56-.14-.31-.25-.64-.36-.96-.28-.83-.55-1.66-.93-2.45-.22-.45-.56-1.16-1.13-1.23-.73-.09-1.06,.82-1.1,1.39-.09,1.18,.26,2.35,.3,3.53,.06,1.6-.03,3.23,.56,4.75,.58,1.49,1.54,2.79,2.41,4.12,.63,.97,1.14,1.97,1.59,3.03,.46,1.1,.88,2.21,1.24,3.35Z"/>
              <path class="cls-14" d="M127.92,61.85c.07,.98,.44,1.89,1.11,2.62,.72,.79,1.75,1.03,2.63,1.58,.46,.29,.92,.7,1.03,1.25,.12,.59-.22,1.11-.51,1.6-.52,.89-1.02,1.74-1.14,2.78-.09,.79,0,1.68,.6,2.26,.8,.77,2.06,.87,3.02,1.35,2.11,1.08,3.66,2.84,4.93,4.79,.11,.17,.42,.06,.34-.14-.03-.07-.06-.14-.09-.2-.18-1.34-.53-2.65-.85-3.96-.32-1.31-.53-2.65-.79-3.97-.38-1.97-.77-4.03-1.6-5.88-.3-.68-.72-1.33-1.31-1.8-.66-.53-1.44-.74-2.23-.98-1.23-.38-2.08-1.07-2.55-2.29-.41-1.08-.68-2.26-.82-3.4-.08-.65-.04-1.31-.09-1.96-.03-.39-.05-1.04-.45-1.26-.07-.04-.18-.02-.22,.06-.56,1.08-.52,2.37-.7,3.54-.2,1.29-.43,2.7-.33,4.01Z"/>
              <path class="cls-14" d="M141.53,71.52c-1.16,2.6-1.67,5.3-1.7,8.14,0,.11,.2,.2,.26,.15,.11,.08,.04,.25,.05,.07,.12-1.91,1.49-3.89,2.95-5.07,1.43-1.15,3.14-1.86,4.82-2.57,.78-.33,1.55-.66,2.31-1.03,.58-.28,1.21-.57,1.68-1.03,.96-.95,.53-2.44-.44-3.21-.82-.65-1.81-.71-2.75-1.01,.76-1.01,1.81-1.77,2.71-2.65,.6-.59,1.52-1.5,1.29-2.44-.39-1.59-2.31-.53-3.12,.01-1.52,1.01-2.88,2.26-4,3.7-1.62,2.09-2.98,4.52-4.05,6.93Z"/>
            </g>
            <path class="cls-9" d="M149.46,38.17c-.62,1.28-1.27,2.54-1.95,3.79-.66,1.21-1.32,2.4-1.82,3.69-.61,1.58-1.25,3.15-1.89,4.72-.67,1.63-1.27,3.3-1.75,4.99-.94,3.31-1.63,6.73-1.98,10.16-.18,1.74-.25,3.5-.21,5.25,.04,1.37,.19,2.72,.32,4.08,.13,1.42,.23,2.85,.11,4.27-.1,1.19-.29,2.6-1.21,3.45-.18,.17-.44-.04-.33-.26,1.1-2.25,1.03-4.7,.83-7.14-.12-1.35-.28-2.68-.32-4.04-.06-1.72,0-3.44,.17-5.15,.32-3.36,.99-6.69,1.86-9.95,.45-1.67,1-3.31,1.63-4.92,.64-1.61,1.37-3.18,1.99-4.81,1.12-2.93,2.82-5.53,4.33-8.27,.08-.14,.28-.02,.22,.13h0Z"/>
            <path class="cls-9" d="M140.02,62.16c-.18-2.14-.37-4.19-1.09-6.23-.34-.95-.74-1.87-1.07-2.83-.27-.79-.67-1.87-.46-2.71,.02-.09,.16-.09,.19,0,.14,.48,.12,1,.22,1.49,.1,.48,.23,.95,.37,1.41,.32,.99,.73,1.93,1.09,2.9,.69,1.88,1.05,3.96,.89,5.96,0,.09-.14,.09-.15,0h0Z"/>
            <path class="cls-9" d="M152.4,49.88c-.85,2.05-3.4,2.17-5.25,2.63-1.33,.33-2.3,1.21-3.01,2.36-.77,1.26-1.29,2.73-1.72,4.13,0,.02-.03,0-.02,0,.52-2.46,1.26-5.41,3.79-6.55,2.03-.92,4.7-.46,6-2.65,.06-.11,.26-.04,.21,.09h0Z"/>
            <path class="cls-9" d="M141.36,61.83c-.1,.14-.19,.28-.3,.41-.05,.07-.1,.13-.17,.18-.07,.05-.14,.12-.24,.12-.04,0-.06-.04-.04-.08,.04-.07,.12-.11,.18-.16,.06-.05,.12-.11,.18-.16,.12-.11,.23-.23,.34-.35,.02-.02,.07,0,.05,.03h0Z"/>
            <path class="cls-9" d="M146.66,68.33c-1.46,1.2-2.81,2.62-3.88,4.18-.51,.74-.99,1.53-1.41,2.33-.47,.87-.78,1.79-1.14,2.7-.03,.07-.15,.07-.14-.02,.2-1.93,1.42-3.58,2.4-5.18,.51-.83,1.14-1.5,1.82-2.2,.7-.72,1.41-1.4,2.24-1.97,.1-.07,.23,.09,.13,.17h0Z"/>
            <path class="cls-9" d="M135.02,66.06c.7,.4,.73,1.51,.74,2.22,.03,1.37-.31,2.65,.29,3.95,.54,1.17,1.41,2.16,2.09,3.25,.64,1.02,1.26,2.33,1.25,3.56,0,.07-.11,.11-.14,.04-.26-.56-.35-1.19-.53-1.78-.21-.66-.49-1.26-.87-1.83-.65-1.01-1.46-1.94-1.99-3.03-.56-1.15-.48-2.29-.44-3.53,.02-.79,.1-2.07-.54-2.66-.1-.09,.03-.25,.14-.19h0Z"/>
          </g>
          <path class="cls-2" d="M139.73,79.17c2.84-.04,8.24-.07,8.24-.07l-1.34,9.93c-.3,2.23-2.21,3.9-4.46,3.9h-2.33s-.23,0-.23,0h-2.33c-2.25,0-4.16-1.67-4.46-3.9l-1.34-9.93s5.41,.03,8.24,.07Z"/>
        </g>
        <g>
          <g>
            <polygon class="cls-20" points="2.57 60.92 18.76 92.98 65.95 93.32 51.39 60.46 2.57 60.92"/>
            <path class="cls-19" d="M97.28,93.12v-2.57s-30.56,0-30.56,0l-14.06-30.82H3.8s-1.23,1.19-1.23,1.19H50.3s14.61,32.18,14.61,32.18c0,0,32.37-.06,32.37,.03Z"/>
            <path class="cls-19" d="M27.08,78.61c.53,1.6,3.43,2.83,6.46,2.76,3.04-.08,5.07-1.43,4.53-3.03-.53-1.6-3.43-2.83-6.46-2.76-3.04,.08-5.07,1.43-4.53,3.03Z"/>
          </g>
          <path class="cls-2" d="M64.91,93.3s.06,0,.08-.02c.1-.05,.15-.17,.1-.27l-14.66-32.3H2.57c-.11,0-.2,.09-.2,.2,0,.11,.09,.2,.2,.2H50.17s14.55,32.06,14.55,32.06c.03,.08,.11,.12,.19,.12Z"/>
        </g>
        <g>
          <g>
            <rect class="cls-18" x="101.87" y="95.55" width="55.45" height="12.45" transform="translate(259.2 203.55) rotate(-180)"/>
            <rect class="cls-1" x="2.43" y="95.55" width="99.77" height="12.45" transform="translate(104.62 203.55) rotate(-180)"/>
          </g>
          <polygon class="cls-7" points="101.87 95.55 102.19 95.55 157.32 95.55 157.32 97.84 102.19 97.84 101.87 97.84 2.43 97.84 2.43 95.55 101.87 95.55"/>
          <rect class="cls-3" x="99.45" y="93.1" width="60.55" height="3.05" transform="translate(259.45 189.24) rotate(-180)"/>
          <rect class="cls-15" x="0" y="93.1" width="99.77" height="3.05" transform="translate(99.77 189.24) rotate(-180)"/>
        </g>
      </g>
    </g>
  </g>
</svg>