<?xml version="1.0" encoding="UTF-8"?><svg id="Layer_1" xmlns="http://www.w3.org/2000/svg" xmlns:xlink="http://www.w3.org/1999/xlink" viewBox="0 0 801 112"><defs><style>.cls-1{fill:url(#linear-gradient-2);}.cls-2{fill:url(#linear-gradient-6);}.cls-3{fill:#e1f8ff;}.cls-4{fill:url(#linear-gradient-5);}.cls-5{fill:#4addf1;}.cls-6{fill:url(#linear-gradient-3);}.cls-7{fill:url(#linear-gradient);}.cls-8{fill:url(#linear-gradient-4);}</style><linearGradient id="linear-gradient" x1="285.93" y1="-59.8" x2="284.43" y2="-17" gradientTransform="translate(0 92)" gradientUnits="userSpaceOnUse"><stop offset=".04" stop-color="#4addf1"/><stop offset=".97" stop-color="#093cc2"/></linearGradient><linearGradient id="linear-gradient-2" x1="275.76" y1="-60.16" x2="274.25" y2="-17.36" gradientTransform="translate(0 92)" gradientUnits="userSpaceOnUse"><stop offset=".04" stop-color="#4addf1"/><stop offset=".97" stop-color="#093cc2"/></linearGradient><linearGradient id="linear-gradient-3" x1="279.69" y1="-67" x2="280.36" y2="-.35" gradientTransform="translate(0 92)" gradientUnits="userSpaceOnUse"><stop offset=".04" stop-color="#4addf1"/><stop offset=".97" stop-color="#093cc2"/></linearGradient><linearGradient id="linear-gradient-4" x1="279.69" y1="-66.96" x2="280.36" y2="-.3" gradientTransform="translate(0 92)" gradientUnits="userSpaceOnUse"><stop offset=".04" stop-color="#4addf1"/><stop offset=".97" stop-color="#093cc2"/></linearGradient><linearGradient id="linear-gradient-5" x1="263.67" y1="-25.59" x2="300.71" y2="-25.59" gradientTransform="translate(0 92)" gradientUnits="userSpaceOnUse"><stop offset=".04" stop-color="#4addf1"/><stop offset=".97" stop-color="#093cc2"/></linearGradient><linearGradient id="linear-gradient-6" x1="271.72" y1="-56.53" x2="273.28" y2="-21.53" gradientTransform="translate(0 92)" gradientUnits="userSpaceOnUse"><stop offset="0" stop-color="#4addf1"/><stop offset=".76" stop-color="#0c43c4"/></linearGradient></defs><rect class="cls-3" width="801" height="112"/><g><g><path class="cls-5" d="M258.9,82.4c-1.7-1.4-3.3-3-4.7-4.7-.3-.4-3.1-3.7-4.9-7.4-3.4-6.9-3.3-14.6-3-18.6h.3c-.4,4-.5,11.6,3,18.4,1.8,3.6,4.6,6.9,4.9,7.3,1.4,1.7,3,3.3,4.7,4.7l-.3,.3h0Z"/><path class="cls-5" d="M248.4,40.9s.1,0,0,0c.1,0,0,.1,0,0q0,.07,0,0Z"/><path class="cls-5" d="M244.7,51.3q0,.07,0,0h0Zm0,0q0,.07,0,0h0Zm0,0q0,.07,0,0h0Zm0,0q0,.07,0,0h0Zm8.9-19.3c.8-.8,1.6-1.6,2.4-2.3,.8-.7,1.6-1.3,2.4-1.9,.5-.3,.9-.7,1.4-1,.8-.5,1.6-1,2.4-1.5,.1-.1,.2-.1,.4-.2,.4-.2,.8-.5,1.2-.7,.6-.3,1.2-.6,1.7-.9,.8-.3,1.5-.7,2.3-1,3.1-1.2,6.3-2,9.6-2.3,4-.4,8.1-.2,12,.7,3.1,.7,6.1,1.7,8.9,3,2.9,1.4,5.6,3.1,8.1,5.2,7.9,6.7,12.9,16.7,13.6,27.1v-1.2c0-7.2-2.9-14.2-7.3-19.9-2.7-3.6-6.1-6.6-9.8-9.1-.2-.1-.4-.2-.6-.4-5.6-3.6-12.1-5.8-18.7-6.3-11.3-.8-23,3.7-30.7,12-7.8,8.3-11.4,20.4-9.3,31.5-1.4-7.4-.5-15.2,2.5-22.1s8.2-12.8,14.6-16.7c1.9-1.2,4-2.2,6.1-3.2,.1-.1,.3-.1,.4-.2v-.1c-.1,0-.1-.1-.2-.1h-.4l-.1-.1h-.1c-.1,0-.2,0-.3,.1h0c-.6,.1-1.2,.3-1.8,.5-1.3,.5-2.5,1.3-3.7,2-2.6,1.5-5,3.4-7.1,5.5-7.4,7.3-11.4,16.2-11.7,26.7-.1,3,.2,6,.3,9-.1-.1-.1-.2-.1-.4-.3-2.2-.6-4.4-.7-6.6-.2-5,.6-9.8,2.4-14.5,.1-.3,.1-.5,.2-.8h-.2c-2.1,5.2-2.9,10.5-2.7,16.1-.1-.2-.1-.4-.1-.6-.2-5.7,.7-11.1,3-16.3,1.1-2.5,2.6-4.8,3.9-7.3h0l-.1-.1c-.6,.9-1.2,1.7-1.8,2.6-3.2,5.3-5.1,11-5.5,17.2-.3,6.3,.9,12.4,3.4,18.2,1.3,3,2.9,5.8,4.8,8.3l.1-.1h0s.1,0,.1,.1l.1,.1h0c.1,.1,.1,.2,.2,.3,.2,.2,.4,.3,.5,.5,3,3.6,6.5,6.6,10.5,9,.1,.1,.2,.1,.3,.2,1.3,.8,2.7,1.4,4.1,2.1-.2-.1-.4-.1-.6-.2-.6-.3-1.2-.5-1.8-.8-.7-.3-1.4-.6-2.1-.9,.2,.2,.4,.3,.6,.4,1.1,.6,2.2,1.1,3.4,1.6,1.3,.5,2.5,1,3.8,1.4,1.8,.6,3.6,1.1,5.4,1.4,1.3,.3,2.6,.4,3.8,.6v-.2c-.3-.1-.5-.1-.8-.2-1-.2-2.1-.4-3.1-.6,.2,0,.5,0,.7,.1,6.5,1.1,12.9,.8,19.2-1.4,.7-.2,1.4-.5,2.1-.8h0c1.4-.6,2.8-1.3,4.1-1.9h0c-.1,0-.3,.1-.4,.2-2.4,1.2-5,2.1-7.6,2.8h0c-1.1,.3-2.2,.5-3.3,.7-3.5,.6-7,.6-10.6,.4,1.2,.1,2.4,.1,3.7,0h0c6.5-.2,12.6-1.9,18.3-5.4,6.8-4.1,11.7-9.7,14.8-17h-.3c-.3,.5-.5,1-.8,1.6-4.4,7.4-10.3,13.1-18.3,16.6-2.3,1-4.8,1.4-7.3,1.8,.2-.1,.5-.2,.8-.2,10.8-2.7,18.6-9.1,23.5-19.1,.3-.7,.6-1.4,.9-2.1,0-.1,0-.3-.1-.4-.1,.1-.2,.2-.3,.3-.2,.4-.4,.8-.6,1.2-6.7,13.4-20.5,21.1-35.5,19.7-7.6-.7-14.2-3.8-20-8.7-4-3.4-7-7.6-9-12.5-.5-1.2-.9-2.5-1.3-3.8,.1,.2,.2,.3,.3,.5,.9,1.9,1.6,3.8,2.6,5.6,.9,1.6,2,3,3,4.5h0c0,.1,.1,.3,.1,.4h.2l.1,.1h0s.1,0,.1,.1c.1,.1,.2,.1,.2,.2h-.3c.6,.8,1.2,1.5,1.9,2.3,.1,.1,.4,.2,.6,.3-.3-.4-.5-.7-.8-1.1,3.2,3.4,7,6,11.3,7.7,3.9,1.6,9.9,2.7,12.6,2.5-2.4-.2-4.7-.6-6.9-1.2h0c-.2-.1-.4-.1-.5-.2h.1c-.5-.2-1.1-.3-1.6-.5h0c-.2-.1-.4-.1-.6-.2h0c-.5-.2-.9-.4-1.4-.6h0c-.2-.1-.4-.2-.5-.2h0c-8.9-3.9-15.8-11.3-18.9-20.4h0v.4c-.1-.5-.3-1.1-.4-1.6l.2,.2h0c-.9-3.1-1.5-6.4-1.5-9.8v.5h0v-1.4h0v.9c0-1.4,.1-2.8,.3-4.2h0v-.1h0c.1-.4,.2-.8,.2-1.2,.7-3.4,1.6-6.6,3.2-9.7h0c.3-.6,.7-1.3,1-1.9,2.3-3.9,5.4-7.3,9-10,8.1-6,18.6-8.2,28.5-6.3,2.6,.5,5.2,1.3,7.6,2.4,1.3,.6,2.6,1.3,3.9,2h.1c3.6,2.2,6.9,5.1,9.5,8.5h0c2.7,3.4,4.8,7.3,6.1,11.5v.1c.2,.5,.3,1,.4,1.5,0-.5-.1-1-.2-1.4v-.3c-.5-3-1.6-5.8-3.1-8.4-.1-.1-.1-.2-.2-.4s-.2-.4-.4-.6c0-.1-.1-.1-.1-.2-.1-.1-.1-.2-.2-.3-1.7-2.5-3.8-4.9-6.1-6.9-5.7-5-12.9-8.4-20.5-9.3-5.3-.6-10.8,0-15.9,1.7-1.1,.4-2.2,.8-3.2,1.3-4,1.8-7.7,4.2-10.9,7.2h0c-1.3,1.2-2.5,2.5-3.6,3.9,.8-1,1.7-2,2.6-3-.1,.1-.3,.3-.4,.4v-.1c0,.4,.2,.2,.3,.1h0Zm-12.6,27.7h-.1v-1.5c0,.5,0,1,.1,1.5h0Zm.1,1.2s-.1,0,0,0q-.07,0,0,0h0c-.07-.07-.1-.13-.1-.2q0-.1,.1-.2v.4Zm.1,1.1h0v-.2h0v.2h0Zm1,2.7c0-.1-.1-.1-.1-.2v-.3h0s0,.1,.1,.1h0v.4Zm.1,1c0-.1-.1-.2-.1-.4h.1v.4Zm.3,.8v-.2h0v.2h0Zm.1,.7q0-.07,0,0c0-.1,.1-.1,0,0q.07-.07,0,0h0Zm.9-3.4h0s0-.1,0,0v-.1h0c.07,0,.07,.03,0,.1,.1-.1,.1,0,0,0Zm25,30.1h-.1s-.1,0-.1-.1h.1l.1,.1h0Zm.5,.2s0-.1,0,0h0Zm4,.3h0q0-.07,0,0t0,0,0,0,0,0h0q.07,0,0,0c.1,0,0,0,0,0Zm1,.1h0q-.07,0,0,0h0q-.07,0,0,0-.07,0,0,0h0Zm1.1,.2q-.07,0,0,0h-.2c0-.1,.1-.1,.2,0h0Zm1.5,.2h-.7v-.1c.2,0,.5,0,.7,.1h0q0-.07,0,0Zm10.2-2.3s.1,0,0,0q.07,.07,0,0,.07,.07,0,0h0q0,.07,0,0c0,.1,0,0,0,0Zm-8.4,1.1h0Zm-2-.2h1.2v.2h0c-.1,0-.2,0-.3-.1-.4,0-.7-.1-.9-.1h0Zm-16.7-6c0,.2,.2,.4,.4,.5,.5,.3,1,.7,1.5,1,1.1,.6,2.1,1.2,3.2,1.7,2,1,4.1,1.8,6.3,2.3,1.5,.4,3,.7,4.5,.9,1.8,.2,3.6,.3,5.4,.2,2.1-.1,4.1-.3,6.2-.8h.1c-.7,.3-1.5,.4-2.2,.5-2.6,.5-5.2,.5-7.9,.3-1.7-.1-3.4-.4-5.1-.8s-3.4-.9-5-1.5c-1.4-.5-2.7-1.2-4-1.9-1.1-.6-2.1-1.2-3.1-1.8-.2-.1-.3-.3-.4-.5-.1-.1,.1,0,.1-.1Zm3.9-1.2s.1-.1,0,0h.2l.1,.1h0c-.1,0-.2-.1-.3-.1h0Zm-.7-.5c.1,.1,.2,.1,.3,.2h0c-.1-.1-.2-.1-.3-.2h0Zm-9.2-7.3l.1,.1h0c.2,.2,.3,.4,.5,.6s.3,.4,.5,.6c-.4-.4-.7-.8-1.1-1.1v-.2h0Zm-1-1.1c.07,.07,.13,.13,.2,.2l-.2-.2s0-.1,0,0c0-.1,0,0,0,0Zm-2.4-3.8c.1,.2,.1,.4,.2,.7v.2h0c-.1-.2-.3-.5-.4-.7,0-.1,.1-.2,.2-.2Zm-.4-.4c-.1-.1-.2-.2-.3-.3v-.1c-.1-.1-.2-.2-.2-.3,0,0,0-.1-.1-.1l-.1-.1s-.1-.1-.1-.2-.1-.1-.1-.2-.1-.1-.1-.2-.1-.1-.1-.2-.1-.1-.1-.2c-.1-.1-.1-.2-.2-.4,0-.07-.03-.13-.1-.2,0-.07-.03-.13-.1-.2-.1-.1,0-.1-.1-.1-.1-.2-.1-.4-.2-.6v-.3c.8,1.4,1.4,2.5,1.9,3.7h0Zm-2.2-4.5h0c.07,0,.1,.03,.1,.1,0,.1-.1,0-.1,.1v-.2Zm-1.2-3.7h0Zm-.2-.7q0-.07,0,0h0q.07,0,0,0h0q.07,0,0,0c.1,.1,0,.1,0,.1h0v-.1h0Zm-.1-.6h0Zm-2.5,.9h0q0-.07,0,0h0q0-.07,0,0,0-.07,0,0,0-.07,0,0,0-.07,0,0Zm1.4-1h0c-.1-.1,0-.1,0-.1v.1h0Zm.2,.7h0q-.07,0,0,0-.07-.07,0,0c-.1-.1,0-.1,0,0h0Zm0-16.6c0,.1,0,.2-.1,.3,0,.1,0,.2-.1,.3,0,.1,0,.2-.1,.3-.1,.2-.1,.5-.1,.7v.2c0,.1,0,.2-.1,.3h0c-.4,2.4-.5,4.8-.3,7.2,0,.8,.2,1.6,.3,2.5-.1-.9-.3-1.9-.4-2.8,0-.2,0-.4-.1-.5v1.7c.1,.8,.1,1.6,.2,2.4,.1,.8,.2,1.6,.2,2.5,0-.1-.1-.1-.1-.2-.1-.1-.1-.2-.2-.3-.1-.2-.1-.3-.1-.5-.1-.6-.2-1.3-.3-1.9,0-.2,0-.3-.1-.5,0-.2,0-.5-.1-.7v-1.8h0v-3.5h0v-1.9c0-.1,0-.2,.1-.4v-.3h0c0-.1,0-.2,.1-.4,0-.2,.1-.5,.2-.7,0-.1,0-.2,.1-.3v-.2c0-.1,.1-.2,.1-.3h0v-.1h0v-.3c0-.1,.1-.2,.1-.3s.1-.3,.1-.4v-.1s0-.1,.1-.1c0,0,0-.1,.1-.1,.27,.13,.43,.2,.5,.2q-.07-.07,0,0h0Zm.2,17.7h0q.07,0,0,0c.1,0,.1,.1,.1,.2,0,0,0-.1-.1-.2h0q0,.07,0,0h0Zm-.1-.6h0q0,.07,0,0h0Zm-.8-13.4s0,.1,0,0h0v-.2h0v.2h0Zm0-.1q0,.07,0,0h0Zm0,0q0,.07,0,0h0Z"/><path class="cls-5" d="M250.4,80.7q0,.07,0,0t0,0,0,0,0,0Z"/><polygon class="cls-5" points="241.3 62.9 241.4 62.9 241.4 62.8 241.3 62.9"/><path class="cls-5" d="M246.9,79.1c-1.8-2.3-3.1-4.9-4.2-7.5-2.4-5.7-3.3-11.8-2.9-18,1.1-16.5,12.4-30.8,28.2-35.6,11.7-3.6,23-2.2,33.7,3.6,.3,.1,.5,.3,.8,.5,.1,.1,.2,.1,.2,.3-.2-.1-.4-.1-.5-.2-5.1-2.8-10.4-4.7-16.1-5.4-4.6-.6-9.3-.7-13.8,.6-5.2,1.4-10.2,3.5-14.6,6.7-.2,.1-.4,.2-.6,.4l-.1-.1c2-1.6,4.3-2.9,6.6-4,.2-.1,.4-.3,.6-.4,.3-.1,.5-.2,.8-.3,.1-.1,.2-.1,.3-.2,.2-.1,.5-.2,.7-.3,0,0,.1,0,.1-.1,0,0-.1,0-.1,.1-.2,.1-.5,.2-.7,.3-.1,.1-.2,.1-.3,.2-.3,.1-.5,.2-.8,.3-1.4,.7-2.9,1.3-4.3,2.1-10.3,6.2-17,15.1-19.3,27-2.1,10.6,0,20.4,6,29.4,.2,.1,.3,.3,.3,.6,.1-.1,.1,0,0,0h0Zm20.2-60.4h0Zm-.4,.2s-.1-.1,0,0q-.07,0,0,0c-.1,0,0,0,0,0Z"/><polygon class="cls-5" points="267.6 18.5 267.5 18.5 267.6 18.6 267.6 18.5"/><path class="cls-5" d="M249.3,81.9l3.7,3.7-.1,.1-3.7-3.7c.07,0,.1-.03,.1-.1Z"/><path class="cls-5" d="M254.1,86.5c1,.7,1.9,1.4,2.9,2.2,0,0,0,.1-.1,.1-1-.7-2-1.4-2.9-2.1,0-.1,.1-.1,.1-.2Z"/><path class="cls-5" d="M251,29.7c.8-.8,1.5-1.6,2.3-2.3l.1,.1c-.9,.7-1.7,1.4-2.4,2.2h0Z"/><path class="cls-5" d="M247.8,80.3c-.3-.4-.6-.8-.9-1.2l.1-.1c.3,.4,.6,.8,.8,1.3q.07,0,0,0h0Z"/><path class="cls-5" d="M253.7,26.9c.4-.3,.7-.6,1.1-.9l.1,.1c-.4,.3-.8,.6-1.2,.8,.1,.1,0,0,0,0h0Z"/><path class="cls-5" d="M249.2,82c-.3-.4-.6-.7-.9-1.1l.1-.1c.3,.4,.6,.7,.9,1.1,0,.07-.03,.1-.1,.1Z"/><path class="cls-5" d="M253,85.6c.4,.3,.7,.6,1.1,.9l-.1,.1c-.4-.3-.7-.6-1-1-.1,.1,0,.1,0,0Z"/><path class="cls-5" d="M249.7,31.1c.3-.3,.5-.6,.8-.9h0c-.2,.3-.5,.6-.8,.9h0Z"/><path class="cls-5" d="M249.7,31.1c-.3,.3-.5,.6-.8,.9l-.1-.1c.4-.2,.7-.5,.9-.8h0Z"/><path class="cls-5" d="M254.8,26c.3-.2,.5-.4,.8-.6,0,0,0,.1,.1,.1-.3,.1-.6,.3-.9,.5h0Z"/><path class="cls-5" d="M256.4,24.8c-.3,.2-.5,.4-.8,.6,0,0,0-.1-.1-.1,.3-.2,.5-.4,.8-.6,0,.1,.1,.1,.1,.1Z"/><path class="cls-5" d="M300.5,90.3c-.3,.1-.5,.3-.8,.4h0c.2-.1,.5-.3,.8-.4h0Z"/><path class="cls-5" d="M257,24.4c-.2,.2-.4,.3-.6,.5l-.1-.1c.2-.2,.4-.4,.7-.4q0-.07,0,0Z"/><path class="cls-5" d="M247.5,33.8c.2-.2,.3-.4,.5-.6l.1,.1c-.2,.2-.3,.4-.6,.5,.1,.1,.1,0,0,0Z"/><path class="cls-5" d="M248.5,32.6c-.2,.2-.3,.4-.5,.6l-.1-.1c.3-.1,.4-.3,.6-.5h0Z"/><path class="cls-5" d="M249,32c-.2,.2-.3,.4-.5,.6,0,0-.1,0-.1-.1,.2-.1,.4-.3,.6-.5h0Z"/><path class="cls-5" d="M248.3,80.9c-.2-.2-.3-.4-.5-.6l.1-.1c.2,.2,.3,.5,.4,.7,.1,0,0,0,0,0Z"/><path class="cls-5" d="M252.4,78.4c-.1-.2-.2-.3-.3-.5h.2c.07,.07,.13,.13,.2,.2h0c-.2,.1-.2,.2-.1,.3h0Z"/><path class="cls-5" d="M249,80.6c-.1-.1-.2-.3-.4-.4l.1-.1h0c.07,.07,.13,.13,.2,.2h0c.1,.1,.1,.2,.1,.3h0Z"/><path class="cls-5" d="M257,88.7l.1,.1c-.07,0-.1-.03-.1-.1-.1,.1,0,0,0,0Z"/><path class="cls-5" d="M299.7,90.7c-.1,.1-.2,.1-.3,.2v-.1c.1,0,.2,0,.3-.1h0Z"/><path class="cls-5" d="M253.5,27.1c.1,0,.1-.1,.2-.1h0s0,.1-.2,.1q.07,0,0,0Z"/><path class="cls-5" d="M253.6,27.1c-.07,.07-.13,.13-.2,.2l-.1-.1c.1,0,.2-.1,.3-.1h0Z"/><path class="cls-5" d="M253.2,27.4c.1,0,.1-.1,.2-.1l.1,.1c-.1-.1-.1,0-.3,0q.07,0,0,0Z"/><path class="cls-5" d="M251,29.7c-.07,.07-.13,.13-.2,.2h0c.1-.1,.1-.2,.2-.2h0Z"/><path class="cls-5" d="M250.8,29.9c-.07,.07-.13,.13-.2,.2h0c.1-.1,.2-.2,.2-.2,0-.1,0,0,0,0Z"/><path class="cls-5" d="M250.7,30c-.07,.07-.13,.13-.2,.2h0c.07-.07,.13-.13,.2-.2h0Z"/><path class="cls-5" d="M245.4,47.5v.2c0,.1,0,.2-.1,.3,0,.1,0,.2-.1,.3,0,.1,0,.2-.1,.3-.1,.2-.1,.5-.1,.7v.2c0,.1,0,.2-.1,.3,.1-.7,.2-1.3,.3-2-.3,1.2-.5,2.3-.7,3.5-.1,.9-.2,1.7-.3,2.6-.2,2.8-.1,5.6,.4,8.4-.1-.2-.1-.3-.1-.5-.1-.6-.2-1.3-.3-1.9,0-.2,0-.3-.1-.5,0-.2,0-.5-.1-.7v-1.8h0v-3.5h0v-1.9c0-.1,0-.2,.1-.4v-.3h0c0-.1,0-.3,.1-.4,0-.2,.1-.5,.2-.7,0-.1,0-.2,.1-.3v-.2c0-.1,.1-.2,.1-.3h0v-.1h0v-.3c0-.1,.1-.2,.1-.3s.1-.3,.1-.4h0v-.1s0-.1,.1-.1c0,0,0-.1,.1-.1,0,0,0-.1,.1-.1h0c.3,.2,.3,.1,.3,.1Z"/><path class="cls-5" d="M245.5,47.4c-.1,0-.1,.1,0,0-.1,.1-.1,0,0,0h0Z"/><path class="cls-5" d="M264.3,86.6c1.6,.6,3.2,1.2,4.8,1.9h0c-1.6-.7-3.2-1.3-4.8-1.9h0Z"/><path class="cls-5" d="M248.3,69.6c.6,1.2,1.2,2.4,1.7,3.5-.6-.4-1.6-2.5-1.7-3.5Z"/><path class="cls-5" d="M282.1,93.8h-3.6c1.2-.1,2.4-.1,3.6,0q0-.07,0,0Z"/><path class="cls-5" d="M273.3,93.1c-1.1-.3-2.1-.5-3.2-.8h0c1,.2,2.1,.5,3.2,.8-.1,0,0,0,0,0Z"/><path class="cls-5" d="M253.9,78.6c.5,.5,.9,1,1.4,1.6h0c-.5-.6-1-1.1-1.4-1.6h0Z"/><path class="cls-5" d="M270,92.3c-.7-.2-1.3-.4-2-.6h0c.7,.2,1.4,.4,2,.6h0Z"/><path class="cls-5" d="M275.1,93.4c-.6-.1-1.2-.2-1.8-.3h0c.6,.1,1.2,.2,1.8,.3h0Z"/><path class="cls-5" d="M253.7,78.4c-.3-.4-.6-.7-.9-1.1h0c.3,.4,.6,.8,.9,1.1h0Z"/><path class="cls-5" d="M240.8,58.1c0,.5,.1,1,.1,1.6h-.1c.1-.5,.1-1.1,0-1.6h0Z"/><path class="cls-5" d="M276.4,93.5c.4,0,.8,0,1.2,.1v.1c-.4-.1-.8-.1-1.2-.2h0Z"/><path class="cls-5" d="M268,91.7c-.4-.2-.8-.3-1.2-.5h0c.4,.2,.8,.3,1.2,.5h0Z"/><path class="cls-5" d="M250.6,74.5c-.2-.3-.3-.5-.5-.8,.1,0,.1-.1,.2-.1,.2,.3,.2,.6,.3,.9h0Z"/><path class="cls-5" d="M251.6,75.7c-.2-.3-.4-.6-.6-.9h0c.2,.3,.4,.6,.6,.9h0Z"/><path class="cls-5" d="M246,66.8c-.1-.4-.2-.7-.3-1.1h0c.1,.4,.2,.7,.3,1.1h0Z"/><path class="cls-5" d="M247.3,67.4c.1,.2,.2,.5,.3,.7h0c-.1-.3-.2-.5-.3-.7h0Z"/><path class="cls-5" d="M276,94.8h.6v.1c-.2,0-.4,0-.6-.1h0Z"/><path class="cls-5" d="M276.4,93.5c-.4,0-.9-.1-1.3-.1h0c.4,0,.8,.1,1.3,.1h0Z"/><path class="cls-5" d="M251.3,34.8c-.2,.2-.3,.4-.5,.6h0c.2-.2,.3-.4,.5-.6h0Z"/><path class="cls-5" d="M275.2,94.7h-.3c.1-.1,.2-.1,.3,0Z"/><path class="cls-5" d="M266,90.9c.3,.1,.5,.2,.8,.3h0c-.2-.1-.5-.2-.8-.3h0Z"/><path class="cls-5" d="M251.9,76.1c.1,.2,.3,.4,.4,.6h0c-.1-.1-.3-.4-.4-.6h0Z"/><path class="cls-5" d="M265.3,90.6c.3,.1,.5,.2,.8,.3h0c-.3-.1-.6-.2-.8-.3h0Z"/><path class="cls-5" d="M241.1,60.5v.4h-.1v-.2c0-.07,.03-.13,.1-.2Z"/><path class="cls-5" d="M241.2,61.9q0,.07,0,0t0,0c-.1-.1,0-.1,0-.1v.1Z"/><path class="cls-5" d="M273.1,95c-.3-.1-.5-.1-.8-.2h0c.3,.1,.6,.2,.8,.2h0Z"/><path class="cls-5" d="M274.1,94.5h-.2v-.1c.07,.07,.13,.1,.2,.1Z"/><path class="cls-5" d="M286.9,92.7h0s0-.1,0,0q.07,0,0,0t0,0Z"/><path class="cls-5" d="M246.5,64.3s0,.1-.1,.1c0,0,0-.1,.1-.1l-.1-.1c.1,0,.1,.1,.1,.1Z"/><path class="cls-5" d="M245.2,63.6h0c-.1-.1,0-.1,0-.1v.1Z"/><path class="cls-5" d="M242.1,64.3c0,.1,.1,.1,.1,.2v.2c0-.1-.1-.1-.1-.2v-.2h0Z"/><path class="cls-5" d="M243.7,63.7s0,.1,0,0c-.1,.1-.1,0,0,0-.07-.07-.07-.1,0-.1,.1,0,0,.1,0,.1Z"/><path class="cls-5" d="M250.6,35.5c-.1,.2-.2,.3-.3,.5h0c.2-.1,.3-.3,.3-.5h0Z"/><path class="cls-5" d="M251.9,76.1c-.1-.2-.2-.3-.3-.5h0c.1,.2,.2,.4,.3,.5h0Z"/><path class="cls-5" d="M264,86.4c-.1-.1-.2-.1-.3-.2,0,0,.1,0,.1-.1,.1,.2,.1,.3,.2,.3h0Z"/><path class="cls-5" d="M270.2,88.8c-.2-.1-.4-.1-.6-.2h0c.2,.1,.4,.1,.6,.2h0Z"/><path class="cls-5" d="M269.9,94.3c.2,.1,.4,.1,.6,.2h0c-.2-.1-.4-.2-.6-.2h0Z"/><path class="cls-5" d="M242.5,66.2c-.1-.2-.2-.3-.2-.5h0c.1,.2,.2,.4,.2,.5h0Z"/><path class="cls-5" d="M273.1,94.4h0s0-.1,0,0c0-.1,.1,0,0,0,.1,0,0,0,0,0Z"/><path class="cls-5" d="M271.1,94.6c-.2,0-.4-.1-.6-.1h0c.2,0,.4,.1,.6,.1h0Z"/><path class="cls-5" d="M271.7,94.8c-.2-.1-.4-.1-.6-.2h0c.2,.1,.4,.1,.6,.2h0Z"/><path class="cls-5" d="M271.7,94.8c.2,0,.4,.1,.7,.1h0c-.3-.1-.5-.1-.7-.1h0Z"/><path class="cls-5" d="M242.3,65.7c0-.1-.1-.3-.1-.4h.1v.4h0Z"/><path class="cls-5" d="M245.6,46.8c0,.2-.1,.4-.1,.6h0c0-.2,.1-.4,.1-.6h0Z"/><path class="cls-5" d="M245.4,64.3h0c-.1,0-.1-.1,0,0-.1-.1,0-.1,0,0q0-.07,0,0Z"/><polygon class="cls-5" points="241.3 62.9 241.4 62.8 241.4 62.9 241.3 62.9"/><path class="cls-5" d="M250.6,74.5c.1,.1,.2,.2,.3,.3h0c0-.1-.2-.2-.3-.3h0Z"/><path class="cls-5" d="M242.5,66.3c0,.07,.03,.13,.1,.2h0c0-.1,0-.2-.1-.2h0Z"/><path class="cls-5" d="M255.6,80.4c-.1-.1-.2-.2-.3-.3h0c.1,.1,.2,.2,.3,.3h0Z"/><path class="cls-5" d="M245.7,46.3l.1-.1s-.1,0-.1,.1c0-.1,0,0,0,0Z"/><path class="cls-5" d="M252.3,78.5v-.3c.1,.1,.2,.2,.3,.3h0c0-.1-.1-.1-.3,0Z"/><path class="cls-5" d="M245.7,46.2c0,.2-.1,.4-.1,.5h0c0-.1,.1-.3,.1-.5,0,.1,0,0,0,0Z"/><path class="cls-5" d="M269.1,88.4c.2,0,.3,.1,.5,.1h0c-.2,0-.3,0-.5-.1h0Z"/><path class="cls-5" d="M270.2,88.8c.1,0,.2,0,.3,.1h-.1c-.1-.1-.2-.1-.2-.1h0Z"/><path class="cls-5" d="M246.8,65.7c-.1-.1-.1-.3-.2-.4h0c.1,.1,.1,.3,.2,.4h0Z"/><path class="cls-5" d="M245.7,65.7c0-.1-.1-.2-.1-.2h.1v.2h0Z"/><path class="cls-5" d="M265,92.6c.1,.1,.3,.1,.4,.2h0c-.1-.1-.3-.2-.4-.2h0Z"/><path class="cls-5" d="M268.4,93.8c.1,0,.2,0,.3,.1v.1c-.2-.1-.3-.2-.3-.2h0Z"/><path class="cls-5" d="M265.7,92.9c.1,.1,.3,.1,.4,.2h0c-.1-.1-.2-.1-.4-.2h0Z"/><path class="cls-5" d="M266.7,93.2c-.2,0-.3-.1-.5-.1h0c.1,0,.3,.1,.5,.1-.1,0,0,0,0,0Z"/><path class="cls-5" d="M267.4,93.5c-.1-.1-.3-.1-.4-.2h0c.1,.1,.2,.2,.4,.2h0Z"/><path class="cls-5" d="M267.4,93.5c.1,.1,.3,.1,.4,.2h0c-.1-.1-.3-.1-.4-.2h0Z"/><path class="cls-5" d="M267.8,93.7c.2,0,.4,.1,.5,.1h0c-.1,0-.3-.1-.5-.1h0Z"/><path class="cls-5" d="M269.4,94.1c-.1,0-.2,0-.3-.1v-.1c.1,.2,.2,.2,.3,.2h0Z"/><path class="cls-5" d="M269.9,94.3c-.2,0-.3-.1-.5-.1h0c.2,0,.3,0,.5,.1h0Z"/><path class="cls-5" d="M247.9,68.8s-.1,0-.1,.1v-.1s.1,0,.1-.1v.1Z"/><path class="cls-5" d="M249.4,79.7c0-.1-.1-.2-.1-.3h0c0,.1,.1,.2,.1,.3h0Z"/><path class="cls-5" d="M249.1,80.6h-.2v-.3c.1,.1,.2,.2,.2,.3Z"/><path class="cls-5" d="M263.3,86c-.1-.1-.2-.1-.3-.2h0c.1,.1,.2,.1,.3,.2h0Z"/><path class="cls-5" d="M264,86.5c.1,0,.2,.1,.3,.1h0c-.1-.1-.2-.1-.3-.1h0Z"/><path class="cls-5" d="M265.3,90.6c-.1,0-.2-.1-.3-.1h0s.2,0,.3,.1h0Z"/><path class="cls-5" d="M250.1,36.5c0-.1,.1-.2,.1-.3h0c-.1,.1-.1,.2-.1,.3h0Z"/><path class="cls-5" d="M265,92.6c-.1-.1-.2-.1-.3-.2h0c0,.1,.1,.1,.3,.2h0Z"/><path class="cls-5" d="M265.4,92.8c.1,.1,.2,.1,.3,.2h0c-.1-.2-.2-.2-.3-.2,0-.1,0,0,0,0Z"/><path class="cls-5" d="M267,93.4c-.1-.1-.2-.1-.3-.2h0c0,.1,.1,.1,.3,.2h0Z"/><path class="cls-5" d="M252.4,78.1l-.2-.2c0,.1,.1,.2,.2,.2Z"/><path class="cls-5" d="M253.7,78.5c.1,0,.1,.1,.2,.1h0c-.1,0-.1-.1-.2-.1,0-.1,0,0,0,0Z"/><path class="cls-5" d="M252.9,78.9c.1,0,.1,.1,.2,.1h0s-.1-.1-.2-.1h0Z"/><path class="cls-5" d="M253.3,79.2c0-.1-.1-.1-.1-.2h0c-.1,.1,0,.2,.1,.2-.1,0,0,0,0,0Z"/><path class="cls-5" d="M249.1,79.2l.2,.2h0l-.2-.2h0Z"/><path class="cls-5" d="M253.2,79.2l.2,.2h0c0-.1-.1-.1-.2-.2,.1,0,0,0,0,0Z"/><path class="cls-5" d="M253.4,79.4c.1,0,.1,.1,.2,.1h0c-.1,0-.1-.1-.2-.1h0Z"/><path class="cls-5" d="M253.6,79.5c.1,0,.1,.1,.2,.1h0c-.1,0-.2-.1-.2-.1h0Z"/><path class="cls-5" d="M249.4,79.7c.1,0,.1,.1,.2,.1h0c-.1,0-.1-.1-.2-.1h0Z"/><path class="cls-5" d="M253.9,79.8l-.2-.2h0c.1,.1,.2,.2,.2,.2h0Z"/><path class="cls-5" d="M249.7,80c-.07-.07-.13-.13-.2-.2h0c.1,.1,.2,.1,.2,.2h0Z"/><path class="cls-5" d="M249,80.3c-.07-.07-.13-.13-.2-.2l.2,.2Z"/><path class="cls-5" d="M250,80.4c.1,0,.1,.1,.2,.1h0c-.07,0-.13-.03-.2-.1h0Z"/><path class="cls-5" d="M255.6,80.4l.2,.2h0c-.1-.1-.2-.1-.2-.2h0Z"/><path class="cls-5" d="M250.2,80.6l.2,.2h0c-.1-.1-.2-.2-.2-.2h0Z"/><path class="cls-5" d="M255.9,80.8l.1,.1h0l-.1-.1h0Z"/><path class="cls-5" d="M256,80.9c0,.1,.1,.1,.1,.2h0c0-.07-.03-.13-.1-.2h0Z"/><path class="cls-5" d="M256.3,81.2c-.1,0-.1-.1-.2-.1h0c.1,0,.2,.1,.2,.1h0Z"/><path class="cls-5" d="M256.5,81.4l-.2-.2h0l.2,.2h0Z"/><path class="cls-5" d="M251,81.5c0-.1-.1-.1-.1-.2h0c-.1,.1,0,.2,.1,.2h0Z"/><path class="cls-5" d="M256.5,81.4c.1,0,.1,.1,.2,.1h0c-.1,0-.2-.1-.2-.1h0Z"/><path class="cls-5" d="M250.9,81.5c.07,.07,.13,.13,.2,.2h0c0-.1-.1-.1-.2-.2h0Z"/><path class="cls-5" d="M256.6,81.5l.2,.2h0l-.2-.2h0Z"/><path class="cls-5" d="M255.9,80.8c0-.1-.1-.1-.1-.2h0c0,.07,.03,.13,.1,.2h0Z"/><path class="cls-5" d="M250.7,35.5c.07-.07,.13-.13,.2-.2h0c-.1,.1-.2,.2-.2,.2-.1,0,0,0,0,0Z"/><path class="cls-5" d="M250.2,36.2c.1,0,.1-.1,.2-.1h0c-.1-.1-.2,0-.2,.1h0Z"/><path class="cls-5" d="M250.1,36.5c-.1,0-.1,.1-.2,.1h0s.1-.1,.2-.1h0Z"/><path class="cls-5" d="M265.3,19.4c.2-.1,.5-.2,.7-.3h0c-.2,.1-.5,.2-.7,.3h0Z"/><path class="cls-5" d="M264.2,19.9c.3-.1,.5-.2,.8-.3h0c-.3,0-.6,.1-.8,.3,0-.1,0,0,0,0Z"/><polygon class="cls-5" points="267.6 18.5 267.6 18.6 267.5 18.5 267.6 18.5"/><path class="cls-5" d="M266.7,18.9s-.1,0,0,0q-.07,0,0,0c-.1-.1,0,0,0,0Z"/><path class="cls-5" d="M266,19.1s.1,0,.1-.1c0,0-.1,0-.1,.1h0Z"/><path class="cls-5" d="M265.3,19.4c-.1,.1-.2,.1-.3,.2h0c.1-.1,.2-.1,.3-.2h0Z"/><path class="cls-5" d="M317.7,53.9c.8,3.2,1.1,6.6,.8,10-.3,3.5-1.2,6.9-2.6,10-1.2,2.5-2.6,4.9-4.4,7.1-1.3,1.6-2.7,3.1-4.3,4.5-1.6,1.4-3.3,2.7-5.1,3.9-2.7,1.7-5.7,3-8.7,3.9-2.8,.8-5.7,1.3-8.6,1.6-2.5,.2-5.1,.2-7.7,0-2-.2-4-.4-6-.8-1.2-.2-2.3-.5-3.5-.8-.1,0-.3-.1-.4-.1s-.2,.2-.1,.2c.9,.3,1.9,.5,2.8,.7,1.8,.4,3.6,.7,5.5,.9,2.5,.3,5,.4,7.5,.3,2.9-.1,5.7-.5,8.5-1.2,3.1-.7,6-1.8,8.8-3.3,2.3-1.2,4.3-2.7,6.3-4.4,1.4-1.2,2.8-2.5,4-3.9,1.8-2,3.3-4.2,4.6-6.6,1.5-2.8,2.6-5.9,3.1-9.1,.6-3.6,.6-7.3-.1-10.9-.1-.7-.3-1.3-.4-2,.1-.2,0-.1,0,0h0Z"/><path class="cls-5" d="M266.1,20.5c.4-.1,.9-.2,1.4-.2h.1l.1,.1c0,.07-.03,.1-.1,.1-.1,.1-.3,.2-.4,.3l-.4,.2-.7-.5Z"/><g><path class="cls-5" d="M267,23.1c-.9,.4-1.9,.8-2.8,1.2-.1,.1-.2,.1-.3,.2-.4,.2-.8,.4-1.2,.7-.1,.1-.2,.1-.4,.2-.3,.1-.6,.3-.9,.4-.4,.2-.7,.4-1.1,.6,.8-.5,1.7-1,2.6-1.5s1.8-.9,2.7-1.3c.4-.1,.9-.3,1.4-.5h0Z"/><path class="cls-5" d="M316.1,48.1h0c0,.2,0,.5-.2,.6h0l-.1,.1h-.1c-.1-.5-.3-.9-.5-1.4,0-.1-.1-.2-.1-.3-1.5-4.2-3.6-8-6.3-11.4h0c-2.7-3.3-5.9-6.2-9.5-8.5h-.1c-5.8-3.7-12.7-5.8-20.1-5.8-3.6,0-7,.5-10.3,1.4-.3,.1-.7,.2-1,.3-1.3,.4-2.5,.9-3.7,1.4,.1,0,.1-.1,.2-.1,.7-.4,1.5-.7,2.3-1,1.5-.6,3.1-1.2,4.7-1.6,.6-.2,1.2-.3,1.8-.4h0c1-.2,2.1-.4,3.1-.5,1.4-.2,2.8-.2,4.2-.2,8.8,0,17,3,23.4,8.1,2.9,2.4,5.4,5.3,7.5,8.5,.1,.1,.1,.2,.2,.3,0,.1,.1,.1,.1,.2,.1,.2,.2,.4,.4,.6,.1,.1,.1,.2,.2,.4,1.5,2.5,2.7,5.3,3.6,8.2,.1,.3,.2,.7,.3,1.1Z"/><path class="cls-5" d="M314.9,47.2l.8-.4,.5,1.6s.1,1.2-.3,1.1c-.5-.1-.5-.6-.5-.6,0,0-.5-1.7-.5-1.7Z"/></g><path class="cls-5" d="M244.6,52.7c-.1,.7-.1,1.4-.1,2.1,0-.7,0-1.4,.1-2.1Z"/><path class="cls-5" d="M244.8,50.7c0,.2-.1,.4-.1,.5h0v.2h0v-.3h0c.1-.1,.1-.3,.1-.4Z"/></g><path class="cls-7" d="M276.7,78.5c-2.1,0-3.6-1-4.4-1.5-.4-.3-.7-.6-1-.9-.7-.8-1.2-1.7-1.5-2.7-.1-.4-.2-.8-.3-1.2v-.4l-.3-8.1,.8,1.2c.1,.1,.2,.2,.2,.3,.1,.1,.1,.2,.2,.2h0c.3,.4,1.2,1.7,2.8,2.3,.9,.4,1.8,.4,2.2,.4,.6,0,1.2,0,1.8-.2,.6-.1,1-.3,1.6-.6h.1l1.6-.8c.6-.3,1-.6,1.3-.8h0l15.3-8.8c1-.5,1.7-.6,2.3-.3,.7,.4,.7,1.3,.7,1.3,0,.2,.3,6.1,.3,7.3,0,1.3-1,1.8-1.2,1.9l-19.2,10.6c-1,.5-2,.8-3.1,.8h-.2Zm-6.4-6.8v.3c0,.4,.1,.8,.2,1.1,.3,1,.7,1.8,1.3,2.5,.3,.3,.5,.6,.9,.8,.7,.5,2.2,1.4,4.2,1.4,1,0,1.9-.3,2.7-.7l19.4-10.9h0s.7-.3,.7-1.2h0c0-1.1-.3-7.2-.3-7.2,0,0,0-.5-.4-.7-.3-.2-.8-.1-1.5,.3l-15.3,8.8c-.3,.2-.8,.5-1.3,.8-.6,.3-1,.6-1.7,.9h-.1c-.6,.3-1.1,.5-1.8,.7-.6,.1-1.3,.2-2,.2-.4,0-1.3,0-2.4-.4-1.6-.6-2.5-1.7-3-2.3l.4,5.6h0Z"/><path class="cls-1" d="M276.5,67.9h-.5c-.4,0-1.3-.1-2.3-.5-1.7-.8-2.6-2.1-3-2.6h0c0-.1-.1-.1-.2-.2s-.1-.2-.2-.3l-.2-.3-.1-23.3c-.2-1.6,.9-2.3,1-2.4h.1l6.6-2.6c.7-.2,1.3-.1,1.7,.2,.5,.4,.5,1.1,.5,1.1l.1,30.1-.2,.1c-.6,.3-1.1,.5-1.8,.6-.6,0-1.1,.1-1.5,.1Zm-5.7-4.3h0c.1,.2,.2,.3,.3,.4,.1,.1,.1,.2,.2,.2h0c.3,.5,1.1,1.7,2.6,2.4,.9,.4,1.8,.5,2.1,.5,.6,0,1.2,0,1.8-.1,.5-.1,.9-.2,1.4-.5l-.2-29.5s0-.4-.2-.5c-.3-.2-.7-.1-1-.1l-6.5,2.6c-.1,.1-.7,.6-.6,1.7h0l.1,22.9h0Z"/><path class="cls-6" d="M280,25c-17.2,0-31.2,14-31.2,31.2s14,31.2,31.2,31.2,31.2-14,31.2-31.2-13.9-31.2-31.2-31.2Zm0,60c-15.9,0-28.8-12.9-28.8-28.8s12.9-28.8,28.8-28.8,28.8,12.9,28.8,28.8-12.9,28.8-28.8,28.8Z"/><path class="cls-8" d="M280,29c-15,0-27.2,12.2-27.2,27.2s12.2,27.2,27.2,27.2,27.2-12.2,27.2-27.2-12.2-27.2-27.2-27.2Zm0,53.6c-14.6,0-26.4-11.8-26.4-26.4s11.8-26.4,26.4-26.4,26.4,11.8,26.4,26.4-11.8,26.4-26.4,26.4Z"/><g><path class="cls-4" d="M297.5,64.4c-.1,1.1-1,1.5-1,1.5l-19.1,10.1c-.5,.3-1.5,.7-2.8,.7-2.2,0-3.7-1.2-4.2-1.6-.3-.3-.6-.6-.9-.9-.6-.8-1-1.7-1.3-2.7-.1-.4-.2-.8-.2-1.2v-7.2c0,.1,.1,.1,.1,.2,.1,.2,.3,.4,.4,.6h0c.3,.5,1.2,1.8,2.8,2.5,.9,.4,1.8,.5,2.2,.5,.9,.1,1.6-.1,1.9-.1,.6-.1,1.1-.3,1.7-.6h.1l1.6-.8c.6-.3,1-.6,1.3-.7l15.2-8.2c2.4-1.2,2.3,.8,2.3,.8,0,0,0,6-.1,7.1Z"/><path class="cls-2" d="M277,66.2c-.6,.3-1.1,.4-1.7,.6-.3,0-1,.2-1.9,.1-.4,0-1.3-.1-2.2-.5-1.6-.7-2.5-2-2.8-2.5h0c-.1-.1-.2-.3-.4-.6,0-.1-.1-.1-.1-.2l-.1-23.1c-.1-1.4,.8-2,.8-2l6.5-2.6c1.8-.5,1.7,.9,1.7,.9l.2,29.9Z"/></g></g></svg>